<svg height="85.333336" viewBox="0 0 85.333336 85.333336" width="85.333336" xmlns="http://www.w3.org/2000/svg"><g transform="matrix(.13333333 0 0 -.13333333 0 85.333333)"><path d="m638.332 320c0-176.73-143.269-320-320-320-176.73 0-319.99997 143.27-319.99997 320s143.26997 320 319.99997 320c176.731 0 320-143.27 320-320" fill="#e1e3cc"/><path d="m316.012 79.8711c-81.571 0-169.004 57.5939-164.762 96.3789.316 2.879.738 5.637 1.246 8.309 11.34-37.676 89.82-84.6879 163.516-84.6879 2.551 0 5.097.0586 7.633.1719 119.378 5.414 211.609 92.094 216.593 209.875.145-3.285.215-6.594.215-9.918 0-122.883-94.051-214.3906-216.808-219.957-2.536-.1133-5.082-.1719-7.633-.1719m-37.274 130.1289c-4.437 17.254-20.101 30-38.738 30-18.641 0-34.301-12.746-38.738-30-.824 3.195-1.262 6.547-1.262 10 0 22.094 17.906 40 40 40s40-17.906 40-40c0-3.453-.437-6.805-1.262-10m-112.793 56.887c-.086 1.625-.191 3.285-.32 4.988-4.496 59.199-69.4141 40.406-57.277 88.598 8.836-23.989 53.574-19.813 57.277-68.598.715-9.414.754-17.641.32-24.988" fill="#b7b7a7"/><path d="m240 180c-22.094 0-40 17.91-40 40 0 22.094 17.906 40 40 40s40-17.906 40-40c0-22.09-17.906-40-40-40m80 360c-85.453 0-180-53.75-210.832-156.555-15.5742-51.941 51.871-31.187 56.457-91.57 3.75-49.375-11.133-65.992-14.375-95.625-4.375-40 88.75-100 172.395-96.207 122.757 5.566 216.808 97.074 216.808 219.957s-97.57 220-220.453 220" fill="#e08e4c"/><g fill="#b77744"><path d="m207.152 350c-22.093 0-40 17.91-40 40s17.907 40 40 40c22.09 0 40-17.91 40-40s-17.91-40-40-40"/><path d="m320 403.871c-22.094 0-40 17.91-40 40 0 22.094 17.906 40 40 40 22.09 0 40-17.906 40-40 0-22.09-17.91-40-40-40"/><path d="m432.109 352.719c-22.089 0-40 17.91-40 40 0 22.094 17.911 40 40 40 22.09 0 40-17.906 40-40 0-22.09-17.91-40-40-40"/><path d="m461.875 227.289c-22.094 0-40 17.91-40 40 0 22.094 17.906 40 40 40 22.09 0 40-17.906 40-40 0-22.09-17.91-40-40-40"/><path d="m371.043 128.961c-22.094 0-40 17.906-40 40 0 22.09 17.906 40 40 40 22.09 0 40-17.91 40-40 0-22.094-17.91-40-40-40"/></g><path d="m247.152 410c0-22.09-17.91-40-40-40-22.093 0-40 17.91-40 40s17.907 40 40 40c22.09 0 40-17.91 40-40" fill="#c84755"/><path d="m360 463.871c0-22.09-17.91-40-40-40-22.094 0-40 17.91-40 40 0 22.094 17.906 40 40 40 22.09 0 40-17.906 40-40" fill="#f3cc70"/><path d="m472.109 412.719c0-22.09-17.91-40-40-40-22.089 0-40 17.91-40 40 0 22.094 17.911 40 40 40 22.09 0 40-17.906 40-40" fill="#77caa9"/><path d="m501.875 287.289c0-22.09-17.91-40-40-40-22.094 0-40 17.91-40 40 0 22.094 17.906 40 40 40 22.09 0 40-17.906 40-40" fill="#fff"/><path d="m411.043 188.961c0-22.094-17.91-40-40-40-22.094 0-40 17.906-40 40 0 22.09 17.906 40 40 40 22.09 0 40-17.91 40-40" fill="#495672"/></g></svg>